<svg width="29" height="29" viewBox="0 0 29 29" fill="none" xmlns="http://www.w3.org/2000/svg">
<path d="M27.9881 14.4998C27.9881 21.9492 21.9492 27.9881 14.4998 27.9881C7.0505 27.9881 1.01162 21.9492 1.01162 14.4998C1.01162 7.0505 7.0505 1.01162 14.4998 1.01162C21.9492 1.01162 27.9881 7.0505 27.9881 14.4998Z" stroke="#09D1FD" stroke-width="2"/>
<path d="M17.1976 11.9749C17.1976 12.5336 17.6506 12.9865 18.2093 12.9865C18.768 12.9865 19.2209 12.5336 19.2209 11.9749H17.1976ZM11.4652 17.026C11.4652 16.4673 11.0122 16.0144 10.4535 16.0144C9.89483 16.0144 9.44192 16.4673 9.44192 17.026H11.4652ZM15.5116 7.75606C15.5116 7.19736 15.0587 6.74444 14.5 6.74444C13.9413 6.74444 13.4884 7.19735 13.4884 7.75605L15.5116 7.75606ZM13.4884 21.2443C13.4884 21.803 13.9413 22.2559 14.5 22.2559C15.0587 22.2559 15.5116 21.803 15.5116 21.2443H13.4884ZM14.5 14.3062V13.2946C13.2157 13.2946 12.5348 13.0897 12.1965 12.8632C11.9448 12.6947 11.8024 12.4647 11.8024 11.9749H10.7907H9.77912C9.77912 12.9872 10.1424 13.9228 11.071 14.5445C11.9129 15.1081 13.0867 15.3178 14.5 15.3178V14.3062ZM10.7907 11.9749H11.8024C11.8024 11.6236 11.9944 11.2201 12.4754 10.8675C12.9556 10.5153 13.6682 10.2667 14.5 10.2667V9.25504V8.24342C13.2833 8.24342 12.1412 8.60365 11.279 9.23586C10.4174 9.86763 9.77912 10.8241 9.77912 11.9749H10.7907ZM14.5 9.25504V10.2667C15.3318 10.2667 16.0444 10.5153 16.5246 10.8675C17.0056 11.2201 17.1976 11.6236 17.1976 11.9749H18.2093H19.2209C19.2209 10.8241 18.5826 9.86763 17.721 9.23586C16.8588 8.60365 15.7167 8.24342 14.5 8.24342V9.25504ZM18.5465 17.026H17.5348C17.5348 17.6138 17.2936 17.9768 16.8428 18.2459C16.3306 18.5516 15.5262 18.7343 14.5 18.7343V19.7459V20.7575C15.7086 20.7575 16.9275 20.5516 17.8798 19.9831C18.8935 19.378 19.5581 18.381 19.5581 17.026H18.5465ZM14.5 19.7459V18.7343C13.5561 18.7343 12.747 18.4753 12.203 18.1097C11.6527 17.7398 11.4652 17.3375 11.4652 17.026H10.4535H9.44192C9.44192 18.2167 10.1602 19.1743 11.0744 19.7888C11.9949 20.4076 13.2091 20.7575 14.5 20.7575V19.7459ZM14.5 14.3062V15.3178C15.7924 15.3178 16.5609 15.5118 16.9846 15.7865C17.3164 16.0015 17.5348 16.3265 17.5348 17.026H18.5465H19.5581C19.5581 15.7829 19.1022 14.7479 18.0851 14.0887C17.16 13.4891 15.9052 13.2946 14.5 13.2946V14.3062ZM14.5 9.25504L15.5116 9.25504L15.5116 7.75606L14.5 7.75606L13.4884 7.75605L13.4884 9.25504L14.5 9.25504ZM14.5 19.7459H13.4884V21.2443H14.5H15.5116V19.7459H14.5Z" fill="#09D1FD"/>
</svg>
