<svg width="29" height="29" viewBox="0 0 29 29" fill="none" xmlns="http://www.w3.org/2000/svg">
<path d="M3.42481 10.5032C2.47069 11.0197 -0.030957 12.0743 1.49271 13.3939C2.23701 14.0386 3.06597 14.4996 4.10817 14.4996H10.0552C11.0974 14.4996 11.9264 14.0386 12.6707 13.3939C14.1943 12.0743 11.6927 11.0197 10.7386 10.5032C8.50117 9.29208 5.6622 9.29208 3.42481 10.5032Z" stroke="#09D1FD" stroke-width="2"/>
<path d="M10.1165 4.07705C10.1165 5.77005 8.75776 7.1425 7.08169 7.1425C5.40562 7.1425 4.04689 5.77005 4.04689 4.07705C4.04689 2.38405 5.40562 1.0116 7.08169 1.0116C8.75776 1.0116 10.1165 2.38405 10.1165 4.07705Z" stroke="#09D1FD" stroke-width="2"/>
<path d="M3.70953 18.5457C3.70953 23.0198 7.32816 26.6384 11.8023 26.6384L10.6462 24.3262" stroke="#09D1FD" stroke-width="2" stroke-linecap="round" stroke-linejoin="round"/>
<path d="M25.2905 10.4529C25.2905 5.9787 21.6718 2.36007 17.1977 2.36007L18.3538 4.6723" stroke="#09D1FD" stroke-width="2" stroke-linecap="round" stroke-linejoin="round"/>
<path d="M18.2614 23.9909C17.3073 24.5073 14.8057 25.5619 16.3293 26.8816C17.0736 27.5262 17.9026 27.9872 18.9448 27.9872H24.8918C25.934 27.9872 26.763 27.5262 27.5073 26.8816C29.031 25.5619 26.5293 24.5073 25.5752 23.9909C23.3378 22.7797 20.4988 22.7797 18.2614 23.9909Z" stroke="#09D1FD" stroke-width="2"/>
<path d="M24.9531 17.5647C24.9531 19.2577 23.5944 20.6302 21.9183 20.6302C20.2422 20.6302 18.8835 19.2577 18.8835 17.5647C18.8835 15.8717 20.2422 14.4993 21.9183 14.4993C23.5944 14.4993 24.9531 15.8717 24.9531 17.5647Z" stroke="#09D1FD" stroke-width="2"/>
</svg>
