<svg width="22" height="19" viewBox="0 0 22 19" fill="none" xmlns="http://www.w3.org/2000/svg">
<path d="M11 17.1395C9.63647 17.7764 7.84537 18.1628 5.88372 18.1628C4.79301 18.1628 3.75503 18.0433 2.81395 17.8278C2.209 17.6892 1.90652 17.6199 1.54408 17.3331C1.33736 17.1696 1.07936 16.8458 0.966072 16.6078C0.767442 16.1905 0.767442 15.7858 0.767442 14.9764V3.95383C0.767442 2.9461 1.83166 2.25395 2.81395 2.47894C3.75503 2.69449 4.79301 2.81395 5.88372 2.81395C7.84537 2.81395 9.63647 2.42753 11 1.7907C12.3635 1.15386 14.1546 0.767442 16.1163 0.767442C17.207 0.767442 18.245 0.886905 19.186 1.10245C19.791 1.24101 20.0935 1.31029 20.4559 1.59708C20.6626 1.76065 20.9206 2.08443 21.0339 2.32245C21.2326 2.73977 21.2326 3.14446 21.2326 3.95383V14.9764C21.2326 15.9841 20.1683 16.6763 19.186 16.4513C18.245 16.2357 17.207 16.1163 16.1163 16.1163C14.1546 16.1163 12.3635 16.5027 11 17.1395Z" stroke="#09D1FD" stroke-width="1.5"/>
</svg>
