<svg width="10" height="10" viewBox="0 0 10 10" fill="none" xmlns="http://www.w3.org/2000/svg">
<path d="M0.789474 5C0.789474 3.52618 0.789474 2.78927 1.0763 2.22634C1.3286 1.73118 1.73118 1.3286 2.22634 1.0763C2.78927 0.789474 3.52618 0.789474 5 0.789474C6.47382 0.789474 7.21073 0.789474 7.77366 1.0763C8.26882 1.3286 8.6714 1.73118 8.9237 2.22634C9.21053 2.78927 9.21053 3.52618 9.21053 5C9.21053 6.47382 9.21053 7.21073 8.9237 7.77366C8.6714 8.26882 8.26882 8.6714 7.77366 8.9237C7.21073 9.21053 6.47382 9.21053 5 9.21053C3.52618 9.21053 2.78927 9.21053 2.22634 8.9237C1.73118 8.6714 1.3286 8.26882 1.0763 7.77366C0.789474 7.21073 0.789474 6.47382 0.789474 5Z" stroke="#09D1FD" stroke-width="1.5"/>
</svg>
