<svg width="32" height="32" viewBox="0 0 32 32" fill="none" xmlns="http://www.w3.org/2000/svg">
<path d="M29.3332 16.0003C29.3332 23.3641 23.3636 29.3337 15.9998 29.3337C8.63604 29.3337 2.6665 23.3641 2.6665 16.0003C2.6665 8.63653 8.63604 2.66699 15.9998 2.66699C23.3636 2.66699 29.3332 8.63653 29.3332 16.0003Z" stroke="#09D1FD" stroke-width="2"/>
<path d="M18.6667 13.5044C18.6667 14.0567 19.1144 14.5044 19.6667 14.5044C20.219 14.5044 20.6667 14.0567 20.6667 13.5044H18.6667ZM13 18.4975C13 17.9452 12.5523 17.4975 12 17.4975C11.4477 17.4975 11 17.9452 11 18.4975H13ZM17 9.33398C17 8.7817 16.5523 8.33398 16 8.33398C15.4477 8.33398 15 8.7817 15 9.33398L17 9.33398ZM15 22.6673C15 23.2196 15.4477 23.6673 16 23.6673C16.5523 23.6673 17 23.2196 17 22.6673H15ZM16 15.8089V14.8089C14.7304 14.8089 14.0574 14.6064 13.723 14.3825C13.4742 14.2159 13.3333 13.9885 13.3333 13.5044H12.3333H11.3333C11.3333 14.5051 11.6925 15.43 12.6104 16.0444C13.4426 16.6016 14.6029 16.8089 16 16.8089V15.8089ZM12.3333 13.5044H13.3333C13.3333 13.1571 13.5232 12.7582 13.9986 12.4097C14.4734 12.0615 15.1777 11.8158 16 11.8158V10.8158V9.81576C14.7972 9.81576 13.6682 10.1718 12.816 10.7968C11.9643 11.4213 11.3333 12.3668 11.3333 13.5044H12.3333ZM16 10.8158V11.8158C16.8223 11.8158 17.5266 12.0615 18.0014 12.4097C18.4768 12.7582 18.6667 13.1571 18.6667 13.5044H19.6667H20.6667C20.6667 12.3668 20.0357 11.4213 19.184 10.7968C18.3318 10.1718 17.2028 9.81576 16 9.81576V10.8158ZM20 18.4975H19C19 19.0785 18.7615 19.4373 18.3159 19.7033C17.8095 20.0056 17.0144 20.1861 16 20.1861V21.1861V22.1861C17.1947 22.1861 18.3996 21.9826 19.341 21.4206C20.3431 20.8224 21 19.8369 21 18.4975H20ZM16 21.1861V20.1861C15.067 20.1861 14.2672 19.9302 13.7294 19.5687C13.1854 19.2031 13 18.8054 13 18.4975H12H11C11 19.6745 11.71 20.6212 12.6137 21.2286C13.5237 21.8402 14.7239 22.1861 16 22.1861V21.1861ZM16 15.8089V16.8089C17.2776 16.8089 18.0373 17.0007 18.4561 17.2722C18.784 17.4847 19 17.806 19 18.4975H20H21C21 17.2686 20.5493 16.2455 19.5439 15.5939C18.6294 15.0012 17.3891 14.8089 16 14.8089V15.8089ZM16 10.8158L17 10.8158L17 9.33398L16 9.33398L15 9.33398L15 10.8158L16 10.8158ZM16 21.1861H15V22.6673H16H17V21.1861H16Z" fill="#09D1FD"/>
</svg>
