<svg width="32" height="32" viewBox="0 0 32 32" fill="none" xmlns="http://www.w3.org/2000/svg">
<path d="M5.0518 12.0498C4.10862 12.5603 1.63566 13.6028 3.14186 14.9073C3.87762 15.5446 4.69708 16.0003 5.72733 16.0003H11.6062C12.6364 16.0003 13.4559 15.5446 14.1916 14.9073C15.6978 13.6028 13.2249 12.5603 12.2817 12.0498C10.07 10.8525 7.26354 10.8525 5.0518 12.0498Z" stroke="#09D1FD" stroke-width="2"/>
<path d="M11.6667 5.6973C11.6667 7.37089 10.3236 8.7276 8.66675 8.7276C7.00989 8.7276 5.66675 7.37089 5.66675 5.6973C5.66675 4.0237 7.00989 2.66699 8.66675 2.66699C10.3236 2.66699 11.6667 4.0237 11.6667 5.6973Z" stroke="#09D1FD" stroke-width="2"/>
<path d="M5.33325 20C5.33325 24.4229 8.91039 28 13.3333 28L12.1904 25.7143" stroke="#09D1FD" stroke-width="2" stroke-linecap="round" stroke-linejoin="round"/>
<path d="M26.6667 12C26.6667 7.57714 23.0896 4 18.6667 4L19.8096 6.28571" stroke="#09D1FD" stroke-width="2" stroke-linecap="round" stroke-linejoin="round"/>
<path d="M19.7183 25.3828C18.7751 25.8933 16.3022 26.9358 17.8084 28.2403C18.5441 28.8776 19.3636 29.3333 20.3938 29.3333H26.2727C27.3029 29.3333 28.1224 28.8776 28.8581 28.2403C30.3643 26.9358 27.8914 25.8933 26.9482 25.3828C24.7365 24.1855 21.93 24.1855 19.7183 25.3828Z" stroke="#09D1FD" stroke-width="2"/>
<path d="M26.3333 19.0303C26.3333 20.7039 24.9901 22.0606 23.3333 22.0606C21.6764 22.0606 20.3333 20.7039 20.3333 19.0303C20.3333 17.3567 21.6764 16 23.3333 16C24.9901 16 26.3333 17.3567 26.3333 19.0303Z" stroke="#09D1FD" stroke-width="2"/>
</svg>
