<svg width="1199" height="1184" viewBox="0 0 1199 1184" fill="none" xmlns="http://www.w3.org/2000/svg">
<path opacity="0.5" d="M205.105 781.124L177.6 753.869C174.022 750.324 167.944 752.897 168 757.934L169.619 904.065C169.674 909.055 175.708 911.515 179.237 907.987L311.751 775.472C315.768 771.456 318.933 766.671 321.059 761.404C323.184 756.136 324.225 750.494 324.12 744.815L323.029 685.541C322.938 680.584 316.952 678.153 313.43 681.642L213.036 781.124C211.981 782.17 210.556 782.756 209.071 782.756C207.586 782.756 206.16 782.17 205.105 781.124ZM361.591 865.045L389.248 892.45C392.804 895.974 398.848 893.455 398.848 888.448V742.315C398.848 737.295 392.779 734.782 389.229 738.331L255.719 871.841C251.756 875.805 248.621 880.517 246.496 885.704C244.371 890.891 243.3 896.449 243.344 902.054L243.803 960.432C243.843 965.418 249.861 967.899 253.403 964.39L353.66 865.045C354.715 864 356.141 863.414 357.626 863.414C359.111 863.414 360.536 864 361.591 865.045ZM735.105 781.124L707.6 753.869C704.022 750.324 697.944 752.897 698 757.934L699.619 904.065C699.674 909.055 705.708 911.515 709.237 907.987L841.751 775.472C845.768 771.456 848.933 766.671 851.059 761.404C853.184 756.136 854.225 750.494 854.12 744.815L853.029 685.541C852.938 680.584 846.952 678.153 843.43 681.642L743.036 781.124C741.981 782.17 740.556 782.756 739.071 782.756C737.586 782.756 736.16 782.17 735.105 781.124ZM891.591 865.045L919.248 892.45C922.804 895.974 928.848 893.455 928.848 888.448V742.315C928.848 737.295 922.779 734.782 919.229 738.331L785.719 871.841C781.756 875.805 778.621 880.517 776.496 885.704C774.371 890.891 773.3 896.449 773.344 902.054L773.803 960.432C773.843 965.418 779.861 967.899 783.403 964.39L883.66 865.045C884.715 864 886.141 863.414 887.626 863.414C889.111 863.414 890.536 864 891.591 865.045ZM358.105 550.124L330.6 522.869C327.022 519.324 320.944 521.897 321 526.934L322.619 673.065C322.674 678.055 328.708 680.515 332.237 676.987L464.751 544.472C468.768 540.456 471.933 535.671 474.059 530.404C476.184 525.136 477.225 519.494 477.12 513.815L476.029 454.541C475.938 449.584 469.952 447.153 466.43 450.642L366.036 550.124C364.981 551.17 363.556 551.756 362.071 551.756C360.586 551.756 359.16 551.17 358.105 550.124ZM514.591 634.045L542.248 661.45C545.804 664.974 551.848 662.455 551.848 657.448V511.315C551.848 506.295 545.779 503.782 542.229 507.331L408.719 640.841C404.756 644.805 401.621 649.517 399.496 654.704C397.371 659.891 396.3 665.449 396.344 671.054L396.803 729.432C396.843 734.418 402.861 736.899 406.403 733.39L506.66 634.045C507.715 633 509.141 632.414 510.626 632.414C512.111 632.414 513.536 633 514.591 634.045ZM888.105 550.124L860.6 522.869C857.022 519.324 850.944 521.897 851 526.934L852.619 673.065C852.674 678.055 858.708 680.515 862.237 676.987L994.751 544.472C998.768 540.456 1001.93 535.671 1004.06 530.404C1006.18 525.136 1007.22 519.494 1007.12 513.815L1006.03 454.541C1005.94 449.584 999.948 447.153 996.43 450.642L896.036 550.124C894.981 551.17 893.556 551.756 892.071 551.756C890.586 551.756 889.16 551.17 888.105 550.124ZM1044.59 634.045L1072.25 661.45C1075.81 664.974 1081.85 662.455 1081.85 657.448V511.315C1081.85 506.295 1075.78 503.782 1072.23 507.331L938.719 640.841C934.756 644.805 931.621 649.517 929.496 654.704C927.371 659.891 926.3 665.449 926.344 671.054L926.803 729.432C926.843 734.418 932.861 736.899 936.403 733.39L1036.66 634.045C1038.86 631.869 1042.4 631.869 1044.59 634.045ZM474.105 753.124L446.6 725.869C443.022 722.324 436.944 724.897 437 729.934L438.619 876.065C438.674 881.055 444.708 883.515 448.237 879.987L580.751 747.472C584.768 743.456 587.933 738.671 590.059 733.404C592.184 728.136 593.225 722.494 593.12 716.815L592.029 657.541C591.938 652.584 585.952 650.153 582.43 653.642L482.036 753.124C480.981 754.17 479.556 754.756 478.071 754.756C476.586 754.756 475.16 754.17 474.105 753.124ZM630.591 837.045L658.248 864.45C661.804 867.974 667.848 865.455 667.848 860.448V714.315C667.848 709.295 661.779 706.782 658.229 710.331L524.719 843.841C520.756 847.805 517.621 852.517 515.496 857.704C513.371 862.891 512.3 868.449 512.344 874.054L512.803 932.432C512.843 937.418 518.861 939.899 522.403 936.39L622.66 837.045C623.715 836 625.141 835.414 626.626 835.414C628.111 835.414 629.536 836 630.591 837.045ZM1004.11 753.124L976.6 725.869C973.022 722.324 966.944 724.897 967 729.934L968.619 876.065C968.674 881.055 974.708 883.515 978.237 879.987L1110.75 747.472C1114.77 743.457 1117.93 738.672 1120.06 733.404C1122.18 728.137 1123.22 722.495 1123.12 716.815L1122.03 657.541C1121.94 652.584 1115.95 650.153 1112.43 653.642L1012.04 753.124C1009.84 755.3 1006.3 755.3 1004.11 753.124ZM1160.59 837.045L1188.25 864.45C1191.81 867.974 1197.85 865.455 1197.85 860.448V714.315C1197.85 709.295 1191.78 706.782 1188.23 710.331L1054.72 843.841C1050.75 847.805 1047.62 852.517 1045.5 857.704C1043.37 862.892 1042.3 868.449 1042.35 874.054L1042.81 932.432C1042.84 937.418 1048.86 939.899 1052.4 936.39L1152.66 837.045C1154.86 834.869 1158.4 834.869 1160.59 837.045ZM280.105 325.124L252.6 297.869C249.022 294.324 242.944 296.897 243 301.934L244.619 448.065C244.674 453.055 250.708 455.515 254.237 451.987L386.751 319.472C390.768 315.456 393.933 310.671 396.059 305.404C398.184 300.136 399.225 294.494 399.12 288.815L398.029 229.541C397.938 224.584 391.952 222.153 388.43 225.642L288.036 325.124C286.981 326.17 285.556 326.756 284.071 326.756C282.586 326.756 281.16 326.17 280.105 325.124ZM436.591 409.045L464.248 436.45C467.804 439.974 473.848 437.455 473.848 432.448V286.315C473.848 281.295 467.779 278.782 464.229 282.331L330.719 415.841C326.756 419.805 323.621 424.517 321.496 429.704C319.371 434.891 318.3 440.449 318.344 446.054L318.803 504.432C318.843 509.418 324.861 511.899 328.403 508.39L428.66 409.045C429.715 408 431.141 407.413 432.626 407.413C434.111 407.413 435.536 408 436.591 409.045ZM202.105 102.124L174.6 74.8694C171.022 71.3244 164.944 73.8974 165 78.9344L166.619 225.065C166.674 230.055 172.708 232.515 176.237 228.987L308.751 96.4724C312.768 92.4561 315.933 87.6712 318.059 82.4038C320.184 77.1363 321.225 71.4944 321.12 65.8154L320.029 6.54138C319.938 1.58438 313.952 -0.846615 310.43 2.64238L210.036 102.124C208.981 103.17 207.556 103.756 206.071 103.756C204.586 103.756 203.16 103.17 202.105 102.124ZM358.591 186.045L386.248 213.45C389.804 216.974 395.848 214.455 395.848 209.448V63.3154C395.848 58.2954 389.779 55.7814 386.229 59.3314L252.719 192.841C248.756 196.805 245.62 201.517 243.496 206.704C241.371 211.891 240.3 217.449 240.344 223.054L240.803 281.432C240.843 286.418 246.861 288.899 250.403 285.39L350.66 186.045C351.715 185 353.141 184.413 354.626 184.413C356.111 184.413 357.536 185 358.591 186.045ZM112.105 550.124L84.6004 522.869C81.0224 519.324 74.9444 521.897 75.0004 526.934L76.6194 673.065C76.6744 678.055 82.7094 680.515 86.2364 676.987L218.751 544.472C222.768 540.456 225.933 535.671 228.059 530.404C230.184 525.136 231.225 519.494 231.12 513.815L230.029 454.541C229.938 449.584 223.952 447.153 220.43 450.642L120.036 550.124C118.981 551.17 117.556 551.756 116.071 551.756C114.586 551.756 113.16 551.17 112.105 550.124ZM268.591 634.045L296.248 661.45C299.804 664.974 305.848 662.455 305.848 657.448V511.315C305.848 506.295 299.779 503.782 296.229 507.331L162.719 640.841C158.756 644.805 155.621 649.517 153.496 654.704C151.371 659.891 150.3 665.449 150.344 671.054L150.803 729.432C150.843 734.418 156.861 736.899 160.403 733.39L260.66 634.045C261.715 633 263.141 632.414 264.626 632.414C266.111 632.414 267.536 633 268.591 634.045ZM642.105 550.124L614.6 522.869C611.022 519.324 604.944 521.897 605 526.934L606.619 673.065C606.674 678.055 612.708 680.515 616.237 676.987L748.751 544.472C752.768 540.456 755.933 535.671 758.059 530.404C760.184 525.136 761.225 519.494 761.12 513.815L760.029 454.541C759.938 449.584 753.952 447.153 750.43 450.642L650.036 550.124C648.981 551.17 647.556 551.756 646.071 551.756C644.586 551.756 643.16 551.17 642.105 550.124ZM798.591 634.045L826.248 661.45C829.804 664.974 835.848 662.455 835.848 657.448V511.315C835.848 506.295 829.779 503.782 826.229 507.331L692.719 640.841C688.756 644.805 685.621 649.517 683.496 654.704C681.371 659.891 680.3 665.449 680.344 671.054L680.803 729.432C680.843 734.418 686.861 736.899 690.403 733.39L790.66 634.045C791.715 633 793.141 632.414 794.626 632.414C796.111 632.414 797.536 633 798.591 634.045ZM322.105 998.121L294.6 970.869C291.022 967.324 284.944 969.897 285 974.934L286.619 1121.06C286.674 1126.05 292.708 1128.51 296.237 1124.99L428.751 992.472C432.768 988.456 435.933 983.671 438.059 978.404C440.184 973.136 441.225 967.494 441.12 961.815L440.029 902.541C439.938 897.584 433.952 895.153 430.43 898.642L330.036 998.121C328.982 999.169 327.557 999.757 326.071 999.757C324.585 999.757 323.159 999.169 322.105 998.121ZM478.591 1082.04L506.248 1109.45C509.804 1112.97 515.848 1110.45 515.848 1105.45V959.315C515.848 954.295 509.779 951.782 506.229 955.331L372.719 1088.84C368.756 1092.8 365.621 1097.52 363.497 1102.7C361.372 1107.89 360.301 1113.45 360.344 1119.05L360.803 1177.43C360.843 1182.42 366.861 1184.9 370.403 1181.39L470.66 1082.04C471.717 1081 473.141 1080.41 474.626 1080.41C476.11 1080.41 477.535 1081 478.591 1082.04ZM852.105 998.121L824.6 970.869C821.022 967.324 814.944 969.897 815 974.934L816.619 1121.06C816.674 1126.05 822.708 1128.51 826.237 1124.99L958.751 992.472C962.768 988.456 965.933 983.671 968.059 978.404C970.184 973.136 971.225 967.494 971.12 961.815L970.029 902.541C969.938 897.584 963.952 895.153 960.43 898.642L860.036 998.121C858.982 999.169 857.557 999.757 856.071 999.757C854.585 999.757 853.159 999.169 852.105 998.121ZM1008.59 1082.04L1036.25 1109.45C1039.81 1112.97 1045.85 1110.45 1045.85 1105.45V959.315C1045.85 954.295 1039.78 951.782 1036.23 955.331L902.719 1088.84C898.756 1092.8 895.621 1097.52 893.497 1102.7C891.372 1107.89 890.301 1113.45 890.344 1119.05L890.803 1177.43C890.843 1182.42 896.861 1184.9 900.403 1181.39L1000.66 1082.04C1002.86 1079.87 1006.4 1079.87 1008.59 1082.04ZM563.105 980.124L535.6 952.869C532.022 949.324 525.944 951.897 526 956.934L527.619 1103.06C527.674 1108.05 533.708 1110.51 537.237 1106.99L669.751 974.472C673.768 970.456 676.933 965.671 679.059 960.404C681.184 955.136 682.225 949.494 682.12 943.815L681.029 884.541C680.938 879.584 674.952 877.153 671.43 880.642L571.036 980.124C569.981 981.17 568.556 981.756 567.071 981.756C565.586 981.756 564.16 981.17 563.105 980.124ZM719.591 1064.04L747.248 1091.45C750.804 1094.97 756.848 1092.45 756.848 1087.45V941.315C756.848 936.295 750.779 933.782 747.229 937.331L613.719 1070.84C609.756 1074.8 606.621 1079.52 604.497 1084.7C602.372 1089.89 601.301 1095.45 601.344 1101.05L601.803 1159.43C601.843 1164.42 607.861 1166.9 611.403 1163.39L711.66 1064.04C712.717 1063 714.142 1062.41 715.626 1062.41C717.11 1062.41 718.535 1063 719.591 1064.04ZM38.1054 308.124L10.6004 280.869C7.02238 277.324 0.944384 279.897 1.00038 284.934L2.61938 431.065C2.67438 436.055 8.70938 438.515 12.2364 434.987L144.751 302.472C148.768 298.456 151.933 293.671 154.059 288.404C156.184 283.136 157.225 277.494 157.12 271.815L156.029 212.541C155.938 207.584 149.952 205.153 146.43 208.642L46.0364 308.124C44.9813 309.17 43.5561 309.756 42.0709 309.756C40.5856 309.756 39.1604 309.17 38.1054 308.124ZM194.591 392.045L222.248 419.45C225.804 422.974 231.848 420.455 231.848 415.448V269.315C231.848 264.295 225.779 261.782 222.229 265.331L88.7194 398.841C84.7561 402.805 81.6209 407.518 79.4963 412.705C77.3718 417.892 76.3003 423.449 76.3444 429.054L76.8044 487.432C76.8424 492.418 82.8614 494.899 86.4034 491.39L186.66 392.045C187.715 391 189.141 390.413 190.626 390.413C192.111 390.413 193.536 391 194.591 392.045Z" stroke="white" stroke-width="1.422"/>
</svg>
