<svg width="250" height="251" viewBox="0 0 250 251" fill="none" xmlns="http://www.w3.org/2000/svg">
<g clip-path="url(#clip0_27_28)">
<path d="M0 125.498C0 56.1865 55.9664 0 125.002 0C194.037 0 250 56.1865 250 125.498C250 194.81 194.037 251 125.002 251C55.9664 251 0 194.81 0 125.498Z" fill="#131313" fill-opacity="0.89" stroke="black" stroke-width="0.68" stroke-miterlimit="10"/>
<g clip-path="url(#clip1_27_28)">
<path d="M86.1935 73.3452C90.5671 74.3352 94.9407 74.9952 99.3142 75.9852C103.68 76.9752 108.053 77.6352 112.427 78.6318C113.618 78.9618 114.014 78.6318 114.411 77.6418C116.007 72.0252 117.594 66.732 119.19 61.1154C119.587 60.1254 119.983 59.7954 121.174 60.1254C125.143 61.1154 128.723 61.7754 132.699 62.4354C133.89 62.7654 133.89 63.0954 133.493 63.7554C131.906 69.0486 130.318 74.6652 128.731 79.9518C128.731 80.2818 128.731 80.6118 128.334 81.2718C131.509 81.9318 135.081 82.5984 138.264 83.2584C138.66 83.2584 139.057 82.5984 139.454 82.2684C140.645 77.9718 141.843 74.0052 143.431 69.7086L144.621 65.7486C144.621 65.082 145.018 64.752 145.812 65.082C149.797 66.072 153.765 66.732 158.139 67.722C158.536 67.722 158.536 68.052 158.933 68.052C157.742 72.3552 156.552 76.3218 155.361 80.2884C154.964 81.9384 154.567 83.5884 153.773 85.2384C153.377 86.235 153.773 86.565 154.964 86.895L168.077 91.8516C172.053 93.8316 175.633 96.4782 178.411 99.7848C181.991 104.741 182.388 110.035 180.793 115.321C179.602 118.951 178.015 122.258 174.84 124.904C172.458 126.884 169.267 128.204 166.092 129.201C165.696 129.201 165.299 129.531 164.505 129.531C166.092 130.521 167.68 131.181 169.267 132.171C174.038 135.148 177.221 138.784 178.808 143.417C179.602 147.047 179.205 151.014 178.015 154.651C176.427 159.277 174.443 163.244 170.863 166.88C166.77 170.969 160.927 173.577 154.567 174.154C146.217 175.144 138.264 174.484 130.318 173.494C129.127 173.164 128.334 173.494 127.937 174.484C126.341 179.77 124.754 185.387 123.158 190.68C122.762 192 122.762 192.33 120.777 191.67C117.205 191.01 113.221 190.02 109.649 189.36C108.458 189.03 108.458 188.7 108.855 188.04C110.443 182.417 112.03 176.794 114.014 171.507C114.014 170.847 114.411 170.517 113.618 170.187C110.443 169.527 107.268 168.867 103.688 168.207C102.894 171.177 101.703 174.147 100.902 177.13C100.108 180.1 98.9174 183.07 98.1236 186.053C97.7267 186.713 97.7267 187.043 96.5361 186.713C92.5515 185.723 88.5827 185.063 84.606 184.403C83.4154 184.073 83.4154 183.737 83.8123 183.077C85.3998 177.46 86.9873 171.837 88.9717 166.55C88.9717 166.22 89.3685 165.89 89.3685 165.23C80.2325 163.25 71.0885 161.264 61.5476 159.277C62.3414 157.957 62.7382 156.967 63.532 155.647C65.1195 152.671 66.7149 149.694 67.9055 147.047C68.3024 146.057 68.6993 146.057 69.8899 146.057C72.676 146.717 75.8589 147.377 78.645 147.707C81.82 148.367 84.2012 147.047 84.5981 144.737C89.7734 127.881 94.9407 111.025 99.7111 93.8382C100.505 91.1982 98.5205 88.215 94.9407 87.225C91.3688 86.235 87.781 85.575 84.606 84.915C83.8123 84.915 83.4154 84.585 83.8123 83.925C85.0029 80.2884 86.1935 76.3218 87.3842 72.6852C85.7967 73.6752 85.7967 73.6752 86.1935 73.3452ZM106.466 154.987C106.863 154.987 107.26 155.317 107.26 155.317C113.618 156.637 120.38 158.287 127.135 158.617C131.906 158.947 136.279 158.947 140.653 157.627C148.201 155.647 151.384 147.377 147.011 142.091C145.026 139.451 141.843 137.801 138.66 136.144C131.509 132.838 123.158 131.518 115.213 130.191C114.022 129.861 114.022 130.191 113.626 131.181C112.832 134.488 111.641 137.464 110.839 140.771C109.252 145.397 108.061 150.024 106.474 154.981L106.466 154.987ZM139.859 121.268C140.653 121.268 142.637 120.938 144.225 120.608C151.781 119.288 155.758 112.015 151.781 106.398C149.797 103.421 146.217 101.441 142.637 100.115C137.081 98.1348 131.509 97.1448 125.548 95.8248C124.357 95.4948 123.96 95.8248 123.563 96.8148C121.631 103.683 119.509 110.514 117.197 117.301C116.801 117.961 117.197 118.291 117.991 118.621C119.579 118.951 120.769 119.281 122.365 119.611C128.326 120.278 133.493 121.268 139.859 121.268Z" fill="#F5B300"/>
</g>
</g>
<defs>
<clipPath id="clip0_27_28">
<rect width="250" height="251" fill="white"/>
</clipPath>
<clipPath id="clip1_27_28">
<rect width="127" height="132" fill="white" transform="translate(61 60)"/>
</clipPath>
</defs>
</svg>
