<svg width="650" height="212" viewBox="0 0 650 212" fill="none" xmlns="http://www.w3.org/2000/svg">
<g clip-path="url(#clip0_27_19)">
<path d="M242.382 157.87C218.719 157.279 198.677 144.3 197.175 122.432C197.088 121.163 198.123 120.124 199.394 120.124H221.109C222.294 120.124 223.269 121.032 223.479 122.198C225.278 132.171 233.227 136.676 242.79 137.059C251.155 137.263 258.705 133.182 258.909 126.041C259.113 118.492 254.012 115.023 241.566 112.983C215.245 109.718 197.698 103.597 197.29 82.377C196.882 62.994 214.633 50.344 239.525 50.344C264.401 50.344 283.736 62.187 285.703 85.32C285.812 86.609 284.77 87.682 283.476 87.682H261.872C260.665 87.682 259.681 86.738 259.467 85.55C257.945 77.137 250.726 71.548 240.545 71.36C231.16 71.155 225.039 76.256 225.039 83.397C225.243 90.335 230.344 94.415 243.81 96.864C272.987 101.965 286.453 106.453 286.249 127.877C286.249 148.077 267.478 158.482 242.382 157.87ZM593.836 148.348C564.861 148.348 540.242 128.463 540.052 98.92C539.863 68.051 563.725 48.545 593.836 48.545C624.516 48.545 648.188 68.051 647.999 98.92C647.81 128.085 625.273 148.348 593.836 148.348ZM566.566 98.731C566.566 114.449 578.497 126.57 593.647 126.57C609.176 126.57 621.296 115.017 621.296 98.73C621.296 82.444 609.555 70.324 593.836 70.324C578.497 70.324 566.566 81.876 566.566 98.731ZM541.952 142.167C542.147 143.231 541.572 144.292 540.557 144.665C515.398 153.918 483.01 143.021 483.01 109.146V74.506C483.01 74.2055 482.951 73.9078 482.836 73.6301C482.721 73.3524 482.553 73.1001 482.34 72.8875C482.128 72.6749 481.875 72.5063 481.598 72.3913C481.32 72.2762 481.023 72.217 480.722 72.217H470.717C470.11 72.217 469.528 71.976 469.099 71.5469C468.67 71.1179 468.428 70.5359 468.428 69.929V51.565C468.428 50.311 469.451 49.301 470.701 49.211C484.258 48.23 483.148 39.603 483.02 23.758C483.018 23.4574 483.075 23.1593 483.189 22.881C483.302 22.6026 483.47 22.3495 483.682 22.1362C483.894 21.9228 484.146 21.7535 484.423 21.638C484.701 21.5225 484.998 21.463 485.299 21.463H507.251C507.855 21.463 508.435 21.702 508.864 22.1278C509.292 22.5537 509.535 23.1318 509.539 23.736L509.698 47.029C509.702 47.6332 509.945 48.2113 510.373 48.6372C510.802 49.063 511.382 49.302 511.986 49.302H533.18C533.787 49.302 534.369 49.5432 534.799 49.9724C535.228 50.4017 535.469 50.9839 535.469 51.591V69.929C535.469 70.5359 535.227 71.1179 534.798 71.5469C534.369 71.976 533.787 72.217 533.18 72.217H511.812C511.511 72.217 511.214 72.2762 510.936 72.3913C510.659 72.5063 510.406 72.6749 510.194 72.8875C509.981 73.1001 509.813 73.3524 509.698 73.6301C509.583 73.9078 509.524 74.2055 509.524 74.506V105.738C509.524 120.71 521.603 126.456 535.497 122.185C536.873 121.762 538.361 122.583 538.621 123.999L541.952 142.167ZM445.002 146.454C443.181 146.454 441.435 145.731 440.148 144.443C438.86 143.156 438.137 141.41 438.137 139.589V57.304C438.137 55.4833 438.86 53.7372 440.148 52.4497C441.435 51.1623 443.181 50.439 445.002 50.439H457.785C459.606 50.439 461.352 51.1623 462.639 52.4497C463.927 53.7372 464.65 55.4833 464.65 57.304V139.589C464.65 140.491 464.473 141.383 464.128 142.216C463.783 143.049 463.277 143.806 462.64 144.444C462.002 145.081 461.245 145.587 460.412 145.932C459.579 146.277 458.687 146.454 457.785 146.454H445.002ZM412.378 146.454C411.476 146.454 410.584 146.276 409.751 145.931C408.918 145.586 408.161 145.081 407.524 144.443C406.886 143.806 406.381 143.049 406.036 142.216C405.691 141.383 405.513 140.491 405.513 139.589V45.827C405.513 44.7451 405.769 43.6784 406.259 42.7141C406.75 41.7498 407.461 40.915 408.336 40.278L421.309 30.828C425.846 27.524 432.216 30.765 432.216 36.378V139.589C432.216 141.41 431.493 143.156 430.205 144.443C428.918 145.731 427.172 146.454 425.351 146.454H412.378ZM293.826 178.649C293.219 178.649 292.637 178.408 292.208 177.979C291.779 177.55 291.538 176.968 291.538 176.361V67.706C291.538 66.876 291.987 66.112 292.711 65.708L314.648 53.473C316.173 52.623 318.051 53.725 318.051 55.471V74.111C322.596 59.34 337.936 49.302 353.465 49.302C380.736 48.924 400.621 70.892 400.621 98.352C400.621 129.978 380.736 148.538 354.98 148.348C339.261 148.159 322.975 139.637 318.24 123.918V176.361C318.24 176.968 317.999 177.55 317.57 177.979C317.141 178.408 316.559 178.649 315.952 178.649H293.826ZM319.187 98.352C319.187 116.154 331.686 126.191 346.647 126.57C361.798 126.759 373.918 116.532 373.918 98.352C373.918 82.065 361.419 71.082 346.647 71.27C331.876 71.46 319.187 82.444 319.187 98.352Z" fill="white"/>
<path d="M444.544 36.943L454.304 44.196C455.814 45.318 457.957 44.24 457.957 42.359V4.91399C457.957 2.96899 455.684 1.911 454.196 3.16299L408.429 41.649C408.174 41.8637 407.968 42.1317 407.827 42.4342C407.686 42.7367 407.613 43.0663 407.613 43.4V61.374C407.613 63.331 409.911 64.385 411.394 63.109L441.687 37.045C442.081 36.7061 442.578 36.5114 443.098 36.4929C443.617 36.4743 444.127 36.6331 444.544 36.943ZM24.204 76.49L4.85995 57.322C2.34195 54.828 -1.93205 56.637 -1.89305 60.18L-0.755046 162.961C-0.715046 166.47 3.52895 168.2 6.00995 165.719L99.213 72.516C102.038 69.6911 104.265 66.3256 105.759 62.6207C107.254 58.9158 107.987 54.9474 107.913 50.953L107.146 9.26299C107.082 5.77699 102.871 4.06699 100.395 6.52099L29.783 76.491C29.0408 77.2264 28.0383 77.639 26.9935 77.639C25.9486 77.639 24.9461 77.2254 24.204 76.49ZM134.268 135.516L153.72 154.791C156.222 157.27 160.472 155.498 160.472 151.976V49.195C160.472 45.665 156.204 43.896 153.707 46.392L59.804 140.296C57.0161 143.084 54.8108 146.398 53.3163 150.046C51.8218 153.695 51.0681 157.604 51.099 161.546L51.423 202.606C51.45 206.113 55.683 207.858 58.175 205.39L128.689 135.516C129.431 134.78 130.434 134.368 131.478 134.368C132.523 134.368 133.526 134.78 134.268 135.516Z" fill="white"/>
</g>
<defs>
<clipPath id="clip0_27_19">
<rect width="650" height="212" fill="white"/>
</clipPath>
</defs>
</svg>
